Coordinates
version=1
nRows=13
nColumns=22
inDegrees=yes

Units are S.I. units (second, meters, Newtons, ...)
If the header above contains a line with 'inDegrees', this indicates whether rotational values are in degrees (yes) or radians (no).

endheader
time	pelvis_tilt	pelvis_list	pelvis_rotation	pelvis_tx	pelvis_ty	pelvis_tz	hip_flexion_r	hip_adduction_r	hip_rotation_r	knee_angle_r	ankle_angle_r	subtalar_angle_r	hip_flexion_l	hip_adduction_l	hip_rotation_l	knee_angle_l	ankle_angle_l	subtalar_angle_l	lumbar_extension	lumbar_bending	lumbar_rotation
      3.00000000	      8.90814431	     -3.10544913	      5.26625324	      0.66485865	      0.93709362	     -0.08001385	     17.20424377	     -0.23465198	     -6.08880940	    -36.27308009	      6.79121496	      6.94571628	     -0.56149189	     -0.17028481	      0.01407518	    -29.80767088	     28.85942477	    -21.46883187	    -15.47219929	      5.51978404	    -12.77824995
      3.01000000	      8.89315532	     -3.11222725	      5.22522749	      0.65720298	      0.93855135	     -0.08029519	     16.61159893	     -0.13257251	     -5.84786090	    -38.49656455	      7.50127679	      6.35954572	     -0.26218912	     -0.11067023	     -0.05685175	    -29.32588293	     28.25307910	    -21.67886263	    -15.27246119	      5.46020233	    -12.81671454
      3.02000000	      8.87008994	     -3.10700110	      5.20597937	      0.64951597	      0.93975357	     -0.08054798	     15.94143279	     -0.02980940	     -5.64395052	    -40.63255122	      8.01128513	      5.74016651	      0.08095203	     -0.04302166	     -0.10403189	    -28.91164318	     27.64580536	    -21.91639830	    -15.07649588	      5.38392565	    -12.84127078
      3.03000000	      8.85101987	     -3.05363766	      5.18270477	      0.64179839	      0.94071861	     -0.08077053	     15.19287366	      0.02696924	     -5.47626223	    -42.69184625	      8.31951095	      5.44959882	      0.43801557	      0.07106371	     -0.16467062	    -28.53919180	     27.04528203	    -22.05238191	    -14.90321781	      5.24662054	    -12.81262712
      3.04000000	      8.81745246	     -2.97103666	      5.18606396	      0.63404969	      0.94139413	     -0.08101927	     14.37783563	      0.02951173	     -5.42923413	    -44.64660453	      8.50637240	      4.87422113	      0.85608098	      0.20937641	     -0.23629117	    -28.24990299	     26.54321454	    -22.25843552	    -14.72238596	      5.07893643	    -12.77132871
      3.05000000	      8.79774824	     -2.87810380	      5.19380116	      0.62623726	      0.94188977	     -0.08124675	     13.45389300	      0.04526065	     -5.37704041	    -46.43580724	      8.48071173	      4.61647976	      1.30374019	      0.35962113	     -0.27907699	    -28.04345357	     25.97734984	    -22.35735047	    -14.57080575	      4.90006842	    -12.70044693
      3.06000000	      8.77405639	     -2.74405836	      5.21767498	      0.61838350	      0.94215401	     -0.08150314	     12.44846167	      0.00182077	     -5.40665321	    -48.07826658	      8.34915305	      4.31119610	      1.78982928	      0.55420976	     -0.31648828	    -27.89812712	     25.49304039	    -22.43931988	    -14.42595229	      4.67797722	    -12.59269398
      3.07000000	      8.75710624	     -2.61764825	      5.25946481	      0.61051812	      0.94223451	     -0.08177206	     11.33916947	     -0.04223840	     -5.52236772	    -49.52445199	      8.02050025	      4.15379339	      2.32217193	      0.72967190	     -0.38688479	    -27.84996855	     25.04527874	    -22.48769371	    -14.28449044	      4.47165388	    -12.48440155
      3.08000000	      8.74202680	     -2.43968997	      5.30482737	      0.60258747	      0.94215419	     -0.08203622	     10.14461267	     -0.12740881	     -5.64039267	    -50.78808378	      7.54206548	      4.01655119	      2.86992322	      0.98041725	     -0.36310380	    -27.83550583	     24.59642067	    -22.51073093	    -14.15949024	      4.20398149	    -12.33050437
      3.09000000	      8.73155520	     -2.26272940	      5.36384347	      0.59465107	      0.94192301	     -0.08230900	      8.85866810	     -0.21663973	     -5.83224641	    -51.84428197	      6.87839308	      3.98508118	      3.44859749	      1.22523642	     -0.35625832	    -27.88617273	     24.16940376	    -22.52592698	    -14.03424405	      3.94521139	    -12.17575721
      3.10000000	      8.73510236	     -2.07393534	      5.43455295	      0.58668633	      0.94158772	     -0.08257246	      7.47405791	     -0.30642367	     -6.05560962	    -52.68012619	      6.01076750	      4.11080668	      4.03263915	      1.49013477	     -0.29856662	    -27.97319725	     23.74195135	    -22.52867326	    -13.92356479	      3.67518237	    -11.99998691
      3.11000000	      8.79005895	     -1.88946501	      5.51848256	      0.57872328	      0.94121756	     -0.08282955	      5.95054764	     -0.37568182	     -6.32073137	    -53.28209459	      4.95764418	      4.69439750	      4.57871154	      1.74046291	     -0.25962722	    -28.09271785	     23.34352174	    -22.51826869	    -13.86738653	      3.42250123	    -11.83449334
      3.12000000	      8.79326157	     -1.72889192	      5.59500037	      0.57067306	      0.94063455	     -0.08301794	      4.44694945	     -0.39326759	     -6.56989250	    -53.69626373	      3.71894608	      5.28298386	      5.22730061	      1.97354051	     -0.20214973	    -28.28435042	     22.94529097	    -22.53279335	    -13.75160382	      3.19167991	    -11.64297190
